<?xml version="1.0" encoding="UTF-8"?>
<svg id="Capa_1" xmlns="http://www.w3.org/2000/svg" version="1.1" viewBox="0 0 1280 461.5">
  <!-- Generator: Adobe Illustrator 29.7.1, SVG Export Plug-In . SVG Version: 2.1.1 Build 8)  -->
  <defs>
    <style>
      .st0 {
        font-size: 39px;
        letter-spacing: 0em;
      }

      .st1 {
        letter-spacing: 0em;
      }

      .st1, .st2 {
        font-size: 48px;
      }

      .st3, .st4, .st5 {
        fill: #fff;
      }

      .st4 {
        font-size: 280px;
        letter-spacing: 0em;
      }

      .st4, .st5 {
        font-family: MicrosoftNewTaiLue-Bold, 'Microsoft New Tai Lue';
        font-weight: 700;
      }

      .st2 {
        letter-spacing: 0em;
      }
    </style>
  </defs>
  <text class="st4" transform="translate(494.6 277.3)"><tspan x="0" y="0">UMEP</tspan></text>
  <text class="st5" transform="translate(524.2 338.5)"><tspan class="st1" x="0" y="0">UNIDAD DE MANTENIMIENTO</tspan><tspan class="st0" x="688.9" y="0"> </tspan><tspan class="st2"><tspan x="0" y="57.6">ELECTRONICO PROFESIONAL</tspan></tspan></text>
  <g>
    <path class="st3" d="M158.2,352.4c22.4-2,40.7-20.9,42.3-43.2v-95c3.1-1.7,6.4-2.7,9.3-4.7,36.3-24.1,6.2-82.2-35.4-64.4-30.7,13.2-27.8,58.6,3.5,68.5l-.2,96.8c-2.5,10.9-11.1,18.8-22.2,20.3H28c-10.8-22.7-18.6-47.2-21.5-72.3C-10.9,107.7,115.3-17.2,266.1,1.9c145.1,18.4,236.8,167.2,187.3,305.7-39.7,111.2-158,176.3-273.7,146.7-33.2-8.5-64.8-24.5-91.3-46.2l151.8-.2c30.1-1.5,47.7-20,49.2-49.8v-227.5c22.1-6.8,31-34.3,19.2-53.8s-47.6-23.6-62.4-1.5-5.7,43.5,13,53.4,4.9,1.3,5.2,2.8v230.5c-1.4,12.2-10.3,21.8-22.7,22.7H64.3c-4.9-5.8-10.2-11.3-14.6-17.6-2.4-3.5-5-7.4-8.1-12-.8-1.2-1.7-3-1.7-3h118.2ZM347,230.9l16.3-66-56.3,84h32l-17.4,68.4.9.6,54.5-87h-30Z"/>
    <path class="st3" d="M187.2,161.9c10.8-1.5,20.4,8,18.9,18.8-2,15.5-22.1,21.8-30.6,7.6-6.3-10.4-.9-24.7,11.6-26.5h0Z"/>
    <path class="st3" d="M275.9,79.5c9.3-.8,16.7,5.9,17.7,14.9,1.3,11.3-7,20.1-18.4,18.9-20-2.2-19.3-32.7.7-33.9h.1Z"/>
  </g>
</svg>